<svg width="30" height="30" viewBox="0 0 30 30" fill="none" xmlns="http://www.w3.org/2000/svg">
<g clip-path="url(#clip0_203_564)">
<path d="M25.0792 15.724C23.9829 15.7144 22.8858 15.6841 21.7898 15.6996C20.3481 15.7199 19.2514 16.7465 19.0944 18.1797C19.0874 18.2421 19.0837 18.3049 19.0745 18.4091C18.636 18.4091 18.2027 18.4013 17.7702 18.4105C16.3388 18.4405 15.2255 19.3466 15.0471 20.7436C14.9521 21.4846 15.0075 22.2518 15.0659 23.002C15.091 23.3245 15.265 23.6499 15.4268 23.9436C15.6743 24.3935 15.6942 24.382 15.61 24.9867C15.5805 24.9258 15.5624 24.8552 15.5199 24.8057C15.3201 24.5719 15.0667 24.4925 14.7741 24.5933C14.4801 24.6949 14.3297 24.9221 14.3172 25.2235C14.3017 25.5955 14.3116 25.9685 14.3087 26.3412C14.3083 26.4033 14.2976 26.4654 14.2895 26.5496C12.7159 26.455 11.2435 26.0616 9.81547 25.3502C9.92038 25.1662 10.0223 24.9982 10.1136 24.8242C10.3141 24.4422 10.2107 24.0433 9.86829 23.8549C9.53437 23.671 9.16129 23.7833 8.93633 24.1405C8.83475 24.3019 8.74277 24.4699 8.62716 24.6683C7.3055 23.7954 6.22283 22.7095 5.33556 21.3808C5.5306 21.264 5.71381 21.1632 5.88779 21.0483C6.23576 20.8186 6.33069 20.4348 6.12937 20.1068C5.93766 19.7943 5.55646 19.6949 5.20665 19.8744C5.0275 19.9664 4.85536 20.0728 4.65331 20.188C3.94298 18.7847 3.55439 17.309 3.44727 15.6926C3.65191 15.6926 3.84768 15.6926 4.04345 15.6926C4.25659 15.6926 4.46972 15.6974 4.68249 15.6911C5.14533 15.6775 5.44933 15.406 5.45303 15.01C5.45635 14.614 5.15161 14.3311 4.69209 14.3211C4.28946 14.3122 3.88683 14.3192 3.4517 14.3192C3.54589 12.7205 3.9404 11.2415 4.65405 9.82233C4.81362 9.91394 4.94992 9.99262 5.0866 10.0702C5.53429 10.324 5.9336 10.2541 6.14267 9.88624C6.34916 9.52313 6.20731 9.14931 5.76146 8.88447C5.62627 8.80431 5.49034 8.72563 5.33409 8.63439C6.21101 7.31199 7.29294 6.23302 8.62309 5.34317C8.7195 5.50496 8.80926 5.65567 8.89939 5.80601C9.14984 6.22378 9.53289 6.35491 9.88676 6.14436C10.2425 5.93271 10.3127 5.54448 10.0715 5.11267C9.99388 4.97341 9.91373 4.83563 9.81584 4.66424C11.2221 3.94874 12.7037 3.56384 14.3102 3.45782C14.3102 3.87929 14.3102 4.28045 14.3102 4.68197C14.3102 4.99225 14.4125 5.24934 14.7058 5.39193C15.1535 5.61023 15.6425 5.30438 15.6772 4.77358C15.6987 4.44482 15.6817 4.11348 15.6846 3.78362C15.6854 3.68056 15.695 3.57714 15.7013 3.45967C17.2878 3.55313 18.7601 3.95169 20.1778 4.65833C20.0648 4.85964 19.9551 5.03842 19.8609 5.22496C19.6851 5.57514 19.7907 5.95672 20.1065 6.14436C20.4268 6.3346 20.8036 6.24484 21.0267 5.91424C21.1449 5.73878 21.2457 5.55113 21.3687 5.34538C22.6941 6.21639 23.7742 7.3083 24.6651 8.63698C24.4701 8.74964 24.2943 8.8442 24.1255 8.95022C23.7705 9.17296 23.6622 9.55158 23.851 9.88476C24.0375 10.2135 24.4276 10.3199 24.7944 10.1337C24.9728 10.0432 25.1439 9.93832 25.3171 9.84043C25.8956 10.6908 26.4832 12.8391 26.5353 14.3203C26.1131 14.3203 25.6909 14.3159 25.2691 14.3218C24.9547 14.3263 24.7102 14.4603 24.5913 14.7621C24.4882 15.0229 24.5395 15.27 24.7346 15.4706C24.8328 15.5718 24.9603 15.6446 25.0744 15.7303L25.0803 15.7236L25.0792 15.724ZM15.6832 10.9608C15.6832 10.0669 15.6891 9.17296 15.6809 8.27941C15.6765 7.7848 15.3751 7.48893 14.9381 7.51996C14.5451 7.54803 14.3116 7.84243 14.3109 8.33223C14.3083 10.0665 14.3072 11.8011 14.3131 13.5354C14.3138 13.7304 14.2699 13.866 14.1062 13.9938C13.8285 14.211 13.6201 14.5202 13.6608 14.8711C13.7125 15.318 13.4979 15.5814 13.202 15.8389C13.0417 15.9781 12.8995 16.1377 12.7488 16.2884C12.2146 16.8226 11.6742 17.3508 11.1486 17.8934C10.7437 18.3112 10.8808 18.91 11.4042 19.0651C11.7071 19.1549 11.9402 19.0282 12.1485 18.8195C12.8998 18.0663 13.6574 17.3186 14.4025 16.5592C14.5558 16.4033 14.6995 16.3335 14.927 16.3505C15.5251 16.3955 16.0463 16.0516 16.2627 15.5105C16.4788 14.9697 16.3355 14.3665 15.8712 13.9798C15.7219 13.8557 15.6784 13.7293 15.6802 13.5457C15.6883 12.684 15.6839 11.8218 15.6835 10.96L15.6832 10.9608Z" fill="white"/>
<path d="M15.6031 27.9466C15.7061 28.6307 15.8044 29.2845 15.9023 29.935C11.2499 30.424 4.83733 28.0345 1.65433 21.848C-1.46143 15.7923 -0.0777154 8.34587 4.97695 3.84786C10.1339 -0.741012 17.6096 -1.28955 23.3313 2.54689C29.1639 6.45757 30.9333 13.2458 29.5573 18.501C28.8773 18.4578 28.2057 18.4149 27.5213 18.3714C28.6113 13.6262 27.5874 9.41598 24.1739 5.8998C21.7012 3.35252 18.6161 2.08294 15.0675 2.05967C8.00407 2.01313 2.19363 7.65512 2.04625 14.7654C1.88926 22.3319 8.35166 28.4334 15.6031 27.9466Z" fill="white"/>
<path d="M25.907 19.7828C26.8031 19.7828 27.6527 19.7721 28.5015 19.7895C28.7497 19.7946 29.0183 19.8334 29.2399 19.9368C29.7497 20.1751 29.9798 20.6202 29.9946 21.1735C30.0045 21.5566 29.9983 21.9396 29.9972 22.3231C29.9938 23.3175 29.4464 23.8704 28.4579 23.8719C26.84 23.8741 25.2225 23.8726 23.6046 23.8726C21.71 23.8726 19.8154 23.8734 17.9208 23.8723C16.9058 23.8715 16.3572 23.3263 16.3543 22.319C16.3532 21.9467 16.348 21.574 16.3558 21.2016C16.3739 20.3461 16.9324 19.792 17.7893 19.7846C18.5451 19.778 19.3009 19.7832 20.0563 19.7832C20.1711 19.7832 20.286 19.7832 20.4437 19.7832C20.4437 19.372 20.443 18.9927 20.4437 18.6133C20.446 17.5942 20.9845 17.0523 21.9955 17.0516C22.8152 17.0508 23.6345 17.0486 24.4542 17.0523C25.3218 17.056 25.8903 17.6182 25.9058 18.4896C25.9132 18.9037 25.907 19.3177 25.907 19.7832V19.7828ZM21.8378 19.7606H24.5129V18.4264H21.8378V19.7606Z" fill="white"/>
<path d="M17.041 25.1965H29.3105C29.3105 25.3605 29.3105 25.5397 29.3105 25.7188C29.3105 26.6556 29.3124 27.5924 29.3098 28.5291C29.3072 29.4345 28.7446 29.9974 27.833 30.0063C27.3753 30.0107 26.9176 30.007 26.46 30.007C23.8521 30.007 21.2443 30.0074 18.636 30.007C17.5744 30.007 17.0418 29.4766 17.0414 28.4231C17.0414 27.4546 17.0414 26.4857 17.0414 25.5172V25.1969L17.041 25.1965Z" fill="white"/>
<path d="M25.0723 15.7307H26.5439C26.5243 15.9608 26.5051 16.1883 26.4892 16.376C26.0201 16.1588 25.5495 15.9408 25.0789 15.7236C25.0785 15.7244 25.0726 15.7307 25.0726 15.7307H25.0723Z" fill="white"/>
</g>
<defs>
<clipPath id="clip0_203_564">
<rect width="30" height="30.0085" fill="white"/>
</clipPath>
</defs>
</svg>
